<mxfile host="65bd71144e">
    <diagram id="ZcXFuEUp_2V6sPFL_Brn" name="Page-1">
        <mxGraphModel dx="790" dy="627" grid="0" gridSize="10" guides="1" tooltips="1" connect="1" arrows="1" fold="1" page="1" pageScale="1" pageWidth="850" pageHeight="1100" math="0" shadow="0">
            <root>
                <mxCell id="0"/>
                <mxCell id="1" parent="0"/>
                <mxCell id="98" value="karyawan&lt;br&gt;" style="text;html=1;align=center;verticalAlign=middle;resizable=0;points=[];autosize=1;strokeColor=#d6b656;fillColor=#fff2cc;" parent="1" vertex="1">
                    <mxGeometry x="30" y="70" width="70" height="20" as="geometry"/>
                </mxCell>
                <mxCell id="99" value="operator" style="text;html=1;align=center;verticalAlign=middle;resizable=0;points=[];autosize=1;strokeColor=#6c8ebf;fillColor=#dae8fc;" parent="1" vertex="1">
                    <mxGeometry x="210" y="70" width="60" height="20" as="geometry"/>
                </mxCell>
                <mxCell id="100" value="Supervisor" style="text;html=1;align=center;verticalAlign=middle;resizable=0;points=[];autosize=1;strokeColor=#9673a6;fillColor=#e1d5e7;" parent="1" vertex="1">
                    <mxGeometry x="505" y="65" width="80" height="30" as="geometry"/>
                </mxCell>
                <mxCell id="102" style="edgeStyle=none;html=1;exitX=1;exitY=0.5;exitDx=0;exitDy=0;entryX=0;entryY=0.25;entryDx=0;entryDy=0;" parent="1" edge="1" target="105">
                    <mxGeometry relative="1" as="geometry">
                        <mxPoint x="160" y="155" as="targetPoint"/>
                        <mxPoint x="110" y="155" as="sourcePoint"/>
                    </mxGeometry>
                </mxCell>
                <mxCell id="146" style="edgeStyle=none;html=1;exitX=1;exitY=0.5;exitDx=0;exitDy=0;fontSize=10;fontColor=#1E8232;" edge="1" parent="1" source="105">
                    <mxGeometry relative="1" as="geometry">
                        <mxPoint x="344.0103759765625" y="165" as="targetPoint"/>
                    </mxGeometry>
                </mxCell>
                <mxCell id="105" value="mengisi data ke app" style="whiteSpace=wrap;html=1;fontSize=9;" parent="1" vertex="1">
                    <mxGeometry x="190" y="140" width="100" height="50" as="geometry"/>
                </mxCell>
                <mxCell id="142" style="edgeStyle=none;html=1;exitX=1;exitY=0.5;exitDx=0;exitDy=0;fontSize=10;" edge="1" parent="1" source="113" target="122">
                    <mxGeometry relative="1" as="geometry"/>
                </mxCell>
                <mxCell id="113" value="&lt;span style=&quot;font-size: 10px;&quot;&gt;Kasbon&lt;/span&gt;" style="rhombus;whiteSpace=wrap;html=1;fontSize=10;" parent="1" vertex="1">
                    <mxGeometry x="513" y="135" width="80" height="60" as="geometry"/>
                </mxCell>
                <mxCell id="151" style="edgeStyle=none;html=1;entryX=0.659;entryY=0.978;entryDx=0;entryDy=0;entryPerimeter=0;fontSize=10;fontColor=#1E8232;" edge="1" parent="1" source="116" target="134">
                    <mxGeometry relative="1" as="geometry">
                        <Array as="points">
                            <mxPoint x="397" y="210"/>
                        </Array>
                    </mxGeometry>
                </mxCell>
                <mxCell id="116" value="setuju" style="text;html=1;align=center;verticalAlign=middle;resizable=0;points=[];autosize=1;fontColor=#1E8232;" parent="1" vertex="1">
                    <mxGeometry x="532" y="200" width="50" height="20" as="geometry"/>
                </mxCell>
                <mxCell id="144" style="edgeStyle=none;html=1;fontSize=10;" edge="1" parent="1" source="122" target="141">
                    <mxGeometry relative="1" as="geometry"/>
                </mxCell>
                <mxCell id="122" value="tidak" style="text;html=1;align=center;verticalAlign=middle;resizable=0;points=[];autosize=1;fontColor=#dd3636;" parent="1" vertex="1">
                    <mxGeometry x="605" y="149" width="40" height="20" as="geometry"/>
                </mxCell>
                <mxCell id="145" style="edgeStyle=none;html=1;exitX=0.5;exitY=1;exitDx=0;exitDy=0;entryX=0.5;entryY=0;entryDx=0;entryDy=0;fontSize=10;fontColor=#1E8232;" edge="1" parent="1" source="132" target="138">
                    <mxGeometry relative="1" as="geometry"/>
                </mxCell>
                <mxCell id="132" value="1" style="ellipse;whiteSpace=wrap;html=1;aspect=fixed;fillColor=#ffcccc;strokeColor=#36393d;" parent="1" vertex="1">
                    <mxGeometry x="58" y="213" width="30" height="30" as="geometry"/>
                </mxCell>
                <mxCell id="147" style="edgeStyle=none;html=1;exitX=1;exitY=0.5;exitDx=0;exitDy=0;exitPerimeter=0;entryX=0.008;entryY=0.492;entryDx=0;entryDy=0;entryPerimeter=0;fontSize=10;fontColor=#1E8232;" edge="1" parent="1" source="134" target="113">
                    <mxGeometry relative="1" as="geometry"/>
                </mxCell>
                <mxCell id="150" style="edgeStyle=none;html=1;exitX=0.5;exitY=1;exitDx=0;exitDy=0;exitPerimeter=0;entryX=1;entryY=0.5;entryDx=0;entryDy=0;fontSize=8;fontColor=#1E8232;" edge="1" parent="1" source="134" target="149">
                    <mxGeometry relative="1" as="geometry">
                        <Array as="points">
                            <mxPoint x="387" y="273"/>
                        </Array>
                    </mxGeometry>
                </mxCell>
                <mxCell id="134" value="App" style="strokeWidth=2;html=1;shape=mxgraph.flowchart.database;whiteSpace=wrap;" vertex="1" parent="1">
                    <mxGeometry x="357" y="137" width="50" height="53" as="geometry"/>
                </mxCell>
                <mxCell id="135" value="mengajukan Kasbon" style="shape=document;whiteSpace=wrap;html=1;boundedLbl=1;fontSize=9;" vertex="1" parent="1">
                    <mxGeometry x="30" y="140" width="80" height="50" as="geometry"/>
                </mxCell>
                <mxCell id="136" value="Aplikasi" style="text;html=1;align=center;verticalAlign=middle;resizable=0;points=[];autosize=1;strokeColor=#d79b00;fillColor=#ffe6cc;" vertex="1" parent="1">
                    <mxGeometry x="350" y="65" width="60" height="30" as="geometry"/>
                </mxCell>
                <mxCell id="138" value="&lt;span style=&quot;font-size: 8px;&quot;&gt;menerima informasi kasbon tidak disetujui&lt;/span&gt;" style="whiteSpace=wrap;html=1;fontSize=8;" vertex="1" parent="1">
                    <mxGeometry x="23" y="268" width="100" height="50" as="geometry"/>
                </mxCell>
                <mxCell id="141" value="1" style="ellipse;whiteSpace=wrap;html=1;aspect=fixed;fillColor=#ffcccc;strokeColor=#36393d;" vertex="1" parent="1">
                    <mxGeometry x="610" y="195" width="30" height="30" as="geometry"/>
                </mxCell>
                <mxCell id="153" style="edgeStyle=none;html=1;exitX=0.5;exitY=1;exitDx=0;exitDy=0;entryX=1;entryY=0.5;entryDx=0;entryDy=0;fontSize=10;fontColor=#1E8232;" edge="1" parent="1" source="149" target="152">
                    <mxGeometry relative="1" as="geometry">
                        <Array as="points">
                            <mxPoint x="242" y="375"/>
                        </Array>
                    </mxGeometry>
                </mxCell>
                <mxCell id="149" value="&lt;font style=&quot;font-size: 8px;&quot;&gt;Menerima persetujuan kasbon dan menyerahkan uang&lt;/font&gt;" style="whiteSpace=wrap;html=1;" vertex="1" parent="1">
                    <mxGeometry x="193" y="249" width="100" height="50" as="geometry"/>
                </mxCell>
                <mxCell id="152" value="&lt;span style=&quot;font-size: 10px;&quot;&gt;Menerima Uang&lt;/span&gt;" style="whiteSpace=wrap;html=1;fontSize=10;" vertex="1" parent="1">
                    <mxGeometry x="23" y="351" width="100" height="50" as="geometry"/>
                </mxCell>
            </root>
        </mxGraphModel>
    </diagram>
    <diagram id="m6LNvD4d4eO7Dk8QIljf" name="Page-2">
        <mxGraphModel dx="1386" dy="792" grid="1" gridSize="10" guides="1" tooltips="1" connect="1" arrows="1" fold="1" page="1" pageScale="1" pageWidth="850" pageHeight="1100" math="0" shadow="0">
            <root>
                <mxCell id="0"/>
                <mxCell id="1" parent="0"/>
            </root>
        </mxGraphModel>
    </diagram>
</mxfile>